<svg id="svg" version="1.1" xmlns="http://www.w3.org/2000/svg" xmlns:xlink="http://www.w3.org/1999/xlink" width="400" height="400" viewBox="0, 0, 400,400"><g id="svgg"><path id="path0" d="M160.194 103.539 C 157.786 103.889,155.704 105.665,154.573 108.333 C 154.296 108.987,154.244 109.651,154.169 113.500 L 154.083 117.917 143.917 118.000 L 133.750 118.083 132.449 118.544 C 127.355 120.346,123.849 124.105,122.668 129.030 C 122.341 130.394,122.336 131.030,122.335 167.545 L 122.333 204.674 121.958 204.823 C 121.752 204.905,120.683 205.174,119.583 205.422 C 92.748 211.460,79.217 242.279,92.936 266.114 C 105.956 288.736,137.025 293.808,156.565 276.501 L 157.880 275.336 229.065 275.293 L 300.250 275.250 301.583 274.867 C 306.863 273.352,310.625 269.560,312.035 264.333 L 312.417 262.917 312.417 196.583 C 312.417 133.107,312.404 130.203,312.115 129.167 C 310.727 124.177,307.733 120.714,303.276 118.942 C 300.967 118.025,300.627 118.000,290.239 118.000 L 280.667 118.000 280.667 114.364 C 280.667 108.112,279.668 105.750,276.333 104.115 L 275.250 103.583 270.417 103.583 L 265.583 103.583 264.456 104.116 C 262.541 105.020,260.828 106.971,260.125 109.049 C 260.026 109.343,259.901 111.458,259.847 113.750 L 259.750 117.917 217.333 117.917 L 174.917 117.917 174.833 113.583 L 174.750 109.250 174.148 107.989 C 172.696 104.950,170.466 103.609,166.750 103.540 C 165.467 103.516,163.655 103.479,162.724 103.457 C 161.793 103.435,160.655 103.472,160.194 103.539 M168.928 106.815 C 169.854 107.236,170.757 108.061,171.298 108.981 L 171.750 109.750 171.797 123.167 C 171.852 138.951,171.982 138.017,169.538 139.454 L 168.750 139.917 164.320 139.917 L 159.891 139.917 159.074 139.411 C 157.083 138.181,157.151 138.782,157.205 123.051 L 157.250 109.583 157.741 108.696 C 158.263 107.754,159.203 106.894,159.959 106.666 C 160.970 106.362,168.194 106.482,168.928 106.815 M275.107 106.845 C 275.958 107.257,276.753 108.122,277.232 109.158 C 277.578 109.906,277.584 110.105,277.632 122.750 C 277.691 138.473,277.752 137.950,275.678 139.417 L 274.971 139.917 270.527 139.917 C 265.513 139.917,265.144 139.837,263.924 138.487 C 262.790 137.231,262.820 137.678,262.871 123.153 L 262.917 110.083 263.386 109.127 C 263.905 108.070,264.954 107.096,265.957 106.738 C 267.100 106.330,274.216 106.413,275.107 106.845 M154.203 129.292 L 154.250 137.750 154.777 138.863 C 156.362 142.208,158.172 143.000,164.230 143.000 C 170.464 143.000,172.623 142.073,174.215 138.712 L 174.750 137.583 174.798 129.208 L 174.845 120.833 217.331 120.833 L 259.816 120.833 259.866 129.125 L 259.917 137.417 260.468 138.583 C 262.114 142.067,264.211 143.001,270.384 142.998 C 275.576 142.995,276.746 142.708,278.492 141.008 C 280.514 139.038,280.660 138.201,280.664 128.542 L 280.667 120.833 289.958 120.836 C 300.002 120.839,300.406 120.869,302.501 121.750 C 305.730 123.110,308.316 126.126,309.286 129.667 C 309.561 130.670,309.583 131.909,309.583 146.500 L 309.583 162.250 223.527 162.333 L 137.471 162.417 137.152 162.810 C 136.698 163.370,136.731 164.346,137.219 164.804 L 137.604 165.166 223.594 165.208 L 309.583 165.250 309.583 213.833 C 309.583 259.864,309.568 262.474,309.287 263.500 C 308.135 267.716,305.210 270.725,300.997 272.030 L 299.750 272.417 230.375 272.460 C 192.219 272.484,161.000 272.444,161.000 272.371 C 161.000 272.298,161.627 271.391,162.393 270.356 C 178.874 248.079,169.202 216.221,143.083 206.757 C 138.812 205.209,134.738 204.516,129.122 204.381 L 125.162 204.286 125.206 167.185 L 125.250 130.083 125.639 129.000 C 126.830 125.686,128.803 123.422,131.750 121.986 C 134.019 120.880,134.151 120.869,144.703 120.850 L 154.155 120.833 154.203 129.292 M114.083 141.654 C 113.900 141.731,113.600 141.961,113.417 142.164 C 112.968 142.663,112.797 198.524,113.241 199.586 C 113.657 200.582,114.740 200.786,115.513 200.013 L 116.000 199.526 116.000 171.022 L 116.000 142.519 115.625 142.099 C 115.202 141.626,114.579 141.446,114.083 141.654 M152.050 176.000 C 151.152 176.367,151.155 176.328,151.205 187.152 L 151.250 197.140 151.654 197.570 L 152.058 198.000 162.333 198.000 L 172.609 198.000 172.971 197.614 L 173.333 197.229 173.333 186.966 C 173.333 177.111,173.321 176.688,173.015 176.310 L 172.696 175.917 162.556 175.884 C 156.870 175.865,152.256 175.916,152.050 176.000 M188.750 176.024 C 187.982 176.449,188.000 176.179,188.000 187.003 L 188.000 197.275 188.386 197.638 L 188.771 198.000 199.023 198.000 L 209.275 198.000 209.679 197.570 L 210.083 197.140 210.083 186.908 L 210.083 176.676 209.704 176.296 L 209.324 175.917 199.204 175.878 C 192.052 175.851,188.986 175.893,188.750 176.024 M225.417 176.035 C 224.662 176.467,224.678 176.239,224.672 186.966 L 224.667 197.182 225.076 197.591 L 225.485 198.000 235.750 198.000 L 246.016 198.000 246.425 197.559 L 246.833 197.118 246.833 186.963 L 246.833 176.808 246.346 176.321 L 245.859 175.833 235.804 175.838 C 228.556 175.842,225.657 175.897,225.417 176.035 M261.846 176.265 L 261.333 176.696 261.333 186.939 L 261.333 197.182 261.742 197.591 L 262.152 198.000 272.417 198.000 L 282.682 198.000 283.091 197.591 L 283.500 197.182 283.500 186.995 L 283.500 176.808 283.013 176.321 L 282.526 175.833 272.442 175.833 L 262.359 175.833 261.846 176.265 M170.500 187.000 L 170.500 195.167 162.333 195.167 L 154.167 195.167 154.167 187.000 L 154.167 178.833 162.333 178.833 L 170.500 178.833 170.500 187.000 M207.167 187.000 L 207.167 195.167 199.000 195.167 L 190.833 195.167 190.833 187.000 L 190.833 178.833 199.000 178.833 L 207.167 178.833 207.167 187.000 M243.833 187.000 L 243.833 195.167 235.667 195.167 L 227.500 195.167 227.500 187.000 L 227.500 178.833 235.667 178.833 L 243.833 178.833 243.833 187.000 M280.627 186.958 L 280.583 195.083 272.417 195.083 L 264.250 195.083 264.207 186.958 L 264.163 178.833 272.417 178.833 L 280.670 178.833 280.627 186.958 M131.601 207.336 C 161.191 209.671,177.445 242.237,161.255 266.750 C 146.737 288.733,114.019 289.762,98.159 268.735 C 79.834 244.439,96.008 209.398,126.500 207.335 C 129.170 207.155,129.301 207.155,131.601 207.336 M188.750 208.857 C 187.982 209.282,188.000 209.011,188.000 219.853 L 188.000 230.142 188.439 230.488 C 188.873 230.829,189.012 230.833,199.077 230.833 L 209.275 230.833 209.679 230.403 L 210.083 229.973 210.083 219.741 L 210.083 209.509 209.704 209.130 L 209.324 208.750 199.204 208.711 C 192.052 208.684,188.986 208.727,188.750 208.857 M225.417 208.868 C 224.662 209.301,224.678 209.072,224.672 219.799 L 224.667 230.015 225.076 230.424 L 225.485 230.833 235.701 230.828 C 243.469 230.824,245.980 230.774,246.181 230.620 C 246.823 230.127,246.833 229.957,246.833 219.665 L 246.833 209.641 246.346 209.154 L 245.859 208.667 235.804 208.672 C 228.556 208.675,225.657 208.730,225.417 208.868 M261.846 209.098 L 261.333 209.530 261.333 219.772 L 261.333 230.015 261.742 230.424 L 262.152 230.833 272.312 230.833 C 277.900 230.833,282.594 230.787,282.743 230.730 C 283.487 230.444,283.500 230.253,283.500 219.662 L 283.500 209.641 283.013 209.154 L 282.526 208.667 272.442 208.667 L 262.359 208.667 261.846 209.098 M207.167 219.835 L 207.167 228.003 199.042 227.960 L 190.917 227.917 190.873 219.792 L 190.830 211.667 198.998 211.667 L 207.167 211.667 207.167 219.835 M243.833 219.833 L 243.833 228.000 235.667 228.000 L 227.500 228.000 227.500 219.833 L 227.500 211.667 235.667 211.667 L 243.833 211.667 243.833 219.833 M280.627 219.792 L 280.583 227.917 272.417 227.917 L 264.250 227.917 264.207 219.792 L 264.163 211.667 272.417 211.667 L 280.670 211.667 280.627 219.792 M113.827 225.298 C 112.048 226.218,98.356 234.444,98.042 234.782 C 97.508 235.355,97.537 236.229,98.108 236.758 L 98.549 237.167 102.441 237.167 L 106.333 237.167 106.333 251.179 L 106.333 265.192 106.821 265.679 L 107.308 266.167 114.143 266.167 C 118.267 266.167,121.151 266.101,121.414 266.001 C 122.349 265.646,122.333 265.900,122.333 250.922 L 122.333 237.167 125.929 237.167 L 129.526 237.167 130.013 236.679 C 131.207 235.485,130.909 235.195,123.993 230.809 C 113.888 224.399,114.707 224.843,113.827 225.298 M136.833 225.115 C 136.696 225.167,136.415 225.363,136.208 225.550 L 135.833 225.891 135.833 239.946 L 135.833 254.000 132.411 254.000 C 127.948 254.000,126.929 254.445,127.705 256.054 C 128.087 256.845,143.452 266.251,144.139 266.114 C 145.079 265.926,159.560 256.581,159.792 256.013 C 160.451 254.397,159.517 254.000,155.058 254.000 L 151.667 254.000 151.667 239.946 L 151.667 225.891 151.237 225.487 L 150.807 225.083 143.945 225.052 C 140.171 225.035,136.971 225.063,136.833 225.115 M148.833 241.991 L 148.833 255.981 149.235 256.449 C 149.620 256.896,149.718 256.920,151.444 257.000 L 153.250 257.083 152.583 257.518 C 146.433 261.531,143.932 262.993,143.596 262.774 C 143.244 262.544,140.740 261.000,136.636 258.482 L 134.356 257.083 136.109 257.000 C 137.776 256.921,137.882 256.894,138.265 256.449 L 138.667 255.981 138.667 241.991 L 138.667 228.000 143.750 228.000 L 148.833 228.000 148.833 241.991 M119.031 231.099 C 124.576 234.596,124.324 234.333,122.133 234.333 C 119.022 234.333,119.333 232.665,119.333 249.325 L 119.333 263.167 114.250 263.167 L 109.167 263.167 109.167 249.185 C 109.167 232.568,109.509 234.456,106.474 234.333 L 104.417 234.250 107.750 232.266 C 109.583 231.175,111.796 229.849,112.667 229.320 C 114.671 228.102,113.967 227.905,119.031 231.099 M188.750 241.690 C 187.982 242.116,188.000 241.845,188.000 252.686 L 188.000 262.976 188.439 263.321 C 188.873 263.662,189.012 263.667,199.077 263.667 L 209.275 263.667 209.679 263.237 L 210.083 262.806 210.083 252.575 L 210.083 242.343 209.704 241.963 L 209.324 241.583 199.204 241.545 C 192.052 241.517,188.986 241.560,188.750 241.690 M225.417 241.692 C 224.649 242.113,224.667 241.848,224.667 252.623 L 224.667 262.848 225.076 263.258 L 225.485 263.667 235.701 263.661 C 243.469 263.657,245.980 263.607,246.181 263.453 C 246.823 262.960,246.833 262.791,246.833 252.498 L 246.833 242.474 246.346 241.987 L 245.859 241.500 235.804 241.505 C 228.849 241.509,225.647 241.566,225.417 241.692 M261.846 241.931 L 261.333 242.363 261.333 252.606 L 261.333 262.848 261.742 263.258 L 262.152 263.667 272.391 263.667 C 282.223 263.667,282.645 263.654,283.023 263.348 L 283.417 263.030 283.462 252.756 L 283.507 242.482 283.017 241.991 L 282.526 241.500 272.442 241.500 L 262.359 241.500 261.846 241.931 M207.167 252.668 L 207.167 260.837 199.042 260.793 L 190.917 260.750 190.873 252.625 L 190.830 244.500 198.998 244.500 L 207.167 244.500 207.167 252.668 M243.833 252.667 L 243.833 260.833 235.667 260.833 L 227.500 260.833 227.500 252.667 L 227.500 244.500 235.667 244.500 L 243.833 244.500 243.833 252.667 M280.627 252.625 L 280.583 260.750 272.417 260.750 L 264.250 260.750 264.207 252.625 L 264.163 244.500 272.417 244.500 L 280.670 244.500 280.627 252.625 M169.330 282.781 C 168.186 283.564,168.518 285.168,169.874 285.418 C 170.173 285.472,197.629 285.495,230.889 285.467 L 291.362 285.417 291.764 284.949 C 292.279 284.351,292.279 283.649,291.764 283.051 L 291.362 282.583 230.552 282.541 C 173.607 282.501,169.717 282.517,169.330 282.781 M116.750 293.868 C 115.895 294.358,115.733 295.415,116.409 296.091 L 116.818 296.500 122.750 296.500 L 128.682 296.500 129.091 296.091 C 129.640 295.542,129.640 294.700,129.091 294.108 L 128.683 293.667 122.883 293.672 C 118.834 293.675,116.983 293.735,116.750 293.868 M135.742 294.076 C 135.460 294.358,135.333 294.670,135.333 295.083 C 135.333 295.497,135.460 295.808,135.742 296.091 L 136.152 296.500 178.500 296.500 L 220.848 296.500 221.258 296.091 C 221.540 295.808,221.667 295.497,221.667 295.083 C 221.667 294.670,221.540 294.358,221.258 294.076 L 220.848 293.667 178.500 293.667 L 136.152 293.667 135.742 294.076 M254.987 294.154 C 254.383 294.758,254.366 295.315,254.931 295.987 L 255.363 296.500 275.772 296.500 L 296.182 296.500 296.591 296.091 C 297.258 295.424,296.976 294.000,296.132 293.773 C 295.922 293.717,286.688 293.670,275.612 293.669 L 255.474 293.667 254.987 294.154 " stroke="none" fill="#111332" fill-rule="evenodd"></path><path id="path1" d="M193.500 78.686 C 138.157 81.625,91.712 121.853,80.853 176.255 C 76.458 198.275,78.383 222.074,86.219 242.583 C 86.907 244.386,87.272 245.601,87.343 246.333 C 87.428 247.216,87.453 247.016,87.479 245.250 C 87.770 225.203,101.551 208.996,121.788 204.904 L 122.159 204.829 122.205 167.539 L 122.252 130.250 122.627 128.917 C 124.315 122.913,129.142 118.689,135.091 118.007 C 135.925 117.911,140.455 117.835,145.365 117.835 L 154.146 117.833 154.199 113.458 L 154.252 109.083 154.736 107.936 C 155.721 105.600,157.934 103.862,160.414 103.476 C 162.716 103.118,168.400 103.372,169.741 103.893 C 173.661 105.416,174.861 107.709,174.967 113.875 L 175.035 117.833 217.434 117.833 L 259.833 117.833 259.837 114.042 C 259.843 108.990,260.191 107.709,262.070 105.814 C 264.036 103.833,265.688 103.341,270.388 103.336 L 273.526 103.333 273.054 102.950 C 272.046 102.129,268.962 99.965,266.417 98.290 C 245.080 84.257,219.272 77.318,193.500 78.686 M280.417 109.083 C 280.498 109.267,280.594 111.310,280.630 113.625 L 280.696 117.833 285.136 117.833 L 289.575 117.833 285.996 114.287 C 281.598 109.930,280.226 108.650,280.417 109.083 M298.960 117.951 C 299.168 117.991,299.468 117.990,299.627 117.948 C 299.786 117.906,299.617 117.874,299.250 117.875 C 298.883 117.877,298.753 117.911,298.960 117.951 M140.137 120.958 C 142.733 120.984,146.933 120.984,149.470 120.958 C 152.007 120.932,149.883 120.911,144.750 120.911 C 139.617 120.911,137.541 120.932,140.137 120.958 M217.290 120.958 L 259.663 121.001 259.708 128.875 L 259.753 136.750 259.793 128.792 L 259.833 120.833 217.375 120.875 L 174.917 120.916 217.290 120.958 M285.304 120.958 C 287.900 120.984,292.100 120.984,294.637 120.958 C 297.174 120.932,295.050 120.911,289.917 120.911 C 284.783 120.911,282.707 120.932,285.304 120.958 M133.417 121.333 C 133.207 121.424,133.176 121.477,133.333 121.477 C 133.471 121.477,133.733 121.412,133.917 121.333 C 134.127 121.243,134.158 121.190,134.000 121.190 C 133.862 121.190,133.600 121.255,133.417 121.333 M301.417 121.500 C 301.600 121.579,301.862 121.643,302.000 121.643 C 302.158 121.643,302.127 121.590,301.917 121.500 C 301.733 121.421,301.471 121.357,301.333 121.357 C 301.176 121.357,301.207 121.410,301.417 121.500 M131.625 122.011 C 131.281 122.193,131.000 122.379,131.000 122.424 C 131.000 122.470,131.300 122.354,131.667 122.167 C 132.033 121.980,132.333 121.791,132.333 121.747 C 132.333 121.638,132.332 121.638,131.625 122.011 M303.000 122.077 C 303.000 122.122,303.300 122.313,303.667 122.500 C 304.033 122.687,304.333 122.803,304.333 122.757 C 304.333 122.711,304.033 122.520,303.667 122.333 C 303.300 122.146,303.000 122.031,303.000 122.077 M304.750 123.109 C 305.838 124.175,306.998 125.150,306.333 124.440 C 305.921 124.000,305.358 123.484,305.083 123.293 C 304.808 123.102,304.658 123.019,304.750 123.109 M128.491 124.292 L 127.917 124.917 128.542 124.342 C 129.123 123.808,129.243 123.667,129.116 123.667 C 129.088 123.667,128.807 123.948,128.491 124.292 M126.575 126.849 C 126.429 127.132,126.338 127.394,126.375 127.430 C 126.411 127.466,126.565 127.234,126.717 126.915 C 127.060 126.196,126.941 126.141,126.575 126.849 M125.595 129.262 C 125.534 129.506,125.516 129.738,125.555 129.777 C 125.594 129.817,125.677 129.649,125.738 129.405 C 125.799 129.161,125.817 128.929,125.778 128.889 C 125.739 128.850,125.657 129.018,125.595 129.262 M309.381 131.417 C 309.382 131.875,309.415 132.043,309.453 131.789 C 309.491 131.536,309.490 131.161,309.451 130.956 C 309.411 130.751,309.380 130.958,309.381 131.417 M125.249 167.833 C 125.249 187.954,125.268 196.185,125.292 186.125 C 125.315 176.065,125.315 159.602,125.292 149.542 C 125.268 139.481,125.249 147.712,125.249 167.833 M312.577 196.667 C 312.577 232.096,312.616 257.521,312.663 253.167 L 312.750 245.250 313.607 243.000 C 322.761 218.960,323.939 191.894,316.914 167.000 C 315.784 162.993,313.934 157.526,313.053 155.583 C 312.773 154.967,312.744 154.068,312.664 143.583 C 312.616 137.350,312.577 161.237,312.577 196.667 M154.039 136.500 C 154.039 136.821,154.073 136.952,154.115 136.792 C 154.157 136.631,154.157 136.369,154.115 136.208 C 154.073 136.048,154.039 136.179,154.039 136.500 M278.420 141.062 C 277.438 142.069,277.555 142.085,278.639 141.092 C 279.087 140.682,279.663 139.934,279.464 140.021 C 279.438 140.032,278.968 140.501,278.420 141.062 M172.500 141.034 C 171.996 141.505,171.733 141.808,171.917 141.708 C 172.237 141.533,173.647 140.160,173.492 140.173 C 173.451 140.177,173.004 140.564,172.500 141.034 M115.625 142.092 L 116.000 142.519 116.000 171.022 L 116.000 199.526 115.513 200.013 C 114.746 200.779,113.747 200.628,113.252 199.670 C 112.897 198.983,112.878 142.991,113.233 142.352 C 113.742 141.432,114.930 141.303,115.625 142.092 M276.167 142.508 C 275.754 142.677,275.513 142.819,275.630 142.824 C 275.900 142.836,277.000 142.381,277.000 142.259 C 277.000 142.208,276.981 142.174,276.958 142.184 C 276.935 142.193,276.579 142.339,276.167 142.508 M162.384 143.125 C 163.467 143.154,165.192 143.154,166.218 143.124 C 167.244 143.095,166.358 143.071,164.250 143.071 C 162.142 143.072,161.302 143.095,162.384 143.125 M268.625 143.124 C 269.656 143.154,271.344 143.154,272.375 143.124 C 273.406 143.095,272.563 143.071,270.500 143.071 C 268.438 143.071,267.594 143.095,268.625 143.124 M137.179 162.598 C 136.897 162.835,136.671 163.154,136.677 163.306 C 136.685 163.520,136.719 163.506,136.825 163.244 C 136.901 163.058,137.095 162.795,137.257 162.661 C 137.514 162.447,148.344 162.406,223.567 162.333 L 309.583 162.249 223.638 162.208 L 137.692 162.167 137.179 162.598 M136.680 164.176 C 136.673 164.319,136.783 164.582,136.926 164.760 C 137.181 165.078,137.183 165.078,137.032 164.750 C 136.947 164.567,136.837 164.304,136.786 164.167 C 136.706 163.951,136.691 163.952,136.680 164.176 M157.304 175.792 C 160.083 175.817,164.583 175.817,167.304 175.792 C 170.024 175.766,167.750 175.745,162.250 175.745 C 156.750 175.745,154.524 175.766,157.304 175.792 M193.958 175.792 C 196.731 175.817,201.269 175.817,204.042 175.792 C 206.815 175.766,204.546 175.745,199.000 175.745 C 193.454 175.745,191.185 175.766,193.958 175.792 M230.804 175.792 C 233.583 175.817,238.083 175.817,240.804 175.792 C 243.524 175.766,241.250 175.745,235.750 175.745 C 230.250 175.745,228.024 175.766,230.804 175.792 M267.470 175.792 C 270.250 175.817,274.750 175.817,277.470 175.792 C 280.191 175.766,277.917 175.745,272.417 175.745 C 266.917 175.745,264.691 175.766,267.470 175.792 M172.894 176.179 C 173.136 176.369,173.339 176.650,173.346 176.804 C 173.356 176.995,173.387 177.014,173.448 176.863 C 173.540 176.633,172.893 175.833,172.615 175.833 C 172.527 175.833,172.653 175.989,172.894 176.179 M209.636 176.297 C 209.882 176.552,210.115 176.739,210.153 176.713 C 210.250 176.648,209.473 175.833,209.315 175.833 C 209.245 175.833,209.389 176.042,209.636 176.297 M245.847 175.875 C 245.885 175.898,246.139 176.104,246.412 176.333 C 246.780 176.644,246.844 176.665,246.662 176.417 C 246.373 176.023,246.141 175.839,245.931 175.836 C 245.847 175.834,245.809 175.852,245.847 175.875 M224.759 176.370 C 224.531 176.696,224.500 177.985,224.500 187.008 L 224.500 197.275 224.958 197.679 L 225.417 198.083 225.042 197.656 L 224.667 197.229 224.667 186.985 C 224.667 177.983,224.698 176.696,224.926 176.370 C 225.069 176.167,225.148 176.000,225.102 176.000 C 225.056 176.000,224.902 176.167,224.759 176.370 M210.245 187.000 C 210.245 192.546,210.266 194.815,210.292 192.042 C 210.317 189.269,210.317 184.731,210.292 181.958 C 210.266 179.185,210.245 181.454,210.245 187.000 M246.912 186.917 C 246.912 192.417,246.933 194.643,246.958 191.863 C 246.984 189.084,246.984 184.584,246.958 181.863 C 246.933 179.143,246.912 181.417,246.912 186.917 M261.245 187.000 C 261.245 192.546,261.266 194.815,261.292 192.042 C 261.317 189.269,261.317 184.731,261.292 181.958 C 261.266 179.185,261.245 181.454,261.245 187.000 M283.578 187.000 C 283.578 192.546,283.599 194.815,283.625 192.042 C 283.651 189.269,283.651 184.731,283.625 181.958 C 283.599 179.185,283.578 181.454,283.578 187.000 M154.333 186.917 L 154.333 195.000 162.417 195.000 L 170.500 195.000 170.500 186.917 L 170.500 178.833 162.417 178.833 L 154.333 178.833 154.333 186.917 M191.000 186.917 L 191.000 195.000 199.083 195.000 L 207.167 195.000 207.167 186.917 L 207.167 178.833 199.083 178.833 L 191.000 178.833 191.000 186.917 M227.500 186.917 L 227.500 195.000 235.667 195.000 L 243.833 195.000 243.833 186.917 L 243.833 178.833 235.667 178.833 L 227.500 178.833 227.500 186.917 M264.333 186.917 L 264.333 195.000 272.417 195.000 L 280.500 195.000 280.500 186.917 L 280.500 178.833 272.417 178.833 L 264.333 178.833 264.333 186.917 M173.208 197.375 C 173.029 197.865,173.034 197.886,173.255 197.593 C 173.467 197.313,173.592 196.833,173.453 196.833 C 173.427 196.833,173.317 197.077,173.208 197.375 M187.833 197.107 C 187.833 197.292,188.457 198.000,188.619 198.000 C 188.677 198.000,188.543 197.794,188.321 197.542 C 188.098 197.290,187.898 197.052,187.875 197.014 C 187.852 196.976,187.833 197.018,187.833 197.107 M132.295 204.454 C 132.594 204.491,133.044 204.490,133.295 204.452 C 133.545 204.414,133.300 204.384,132.750 204.385 C 132.200 204.386,131.995 204.417,132.295 204.454 M134.127 204.618 C 134.334 204.658,134.634 204.656,134.794 204.615 C 134.953 204.573,134.783 204.540,134.417 204.542 C 134.050 204.544,133.920 204.578,134.127 204.618 M145.667 207.750 C 145.896 207.881,146.158 207.988,146.250 207.988 C 146.342 207.988,146.229 207.881,146.000 207.750 C 145.771 207.619,145.508 207.512,145.417 207.512 C 145.325 207.512,145.438 207.619,145.667 207.750 M193.958 208.625 C 196.731 208.651,201.269 208.651,204.042 208.625 C 206.815 208.599,204.546 208.578,199.000 208.578 C 193.454 208.578,191.185 208.599,193.958 208.625 M230.625 208.625 C 233.398 208.651,237.935 208.651,240.708 208.625 C 243.481 208.599,241.213 208.578,235.667 208.578 C 230.121 208.578,227.852 208.599,230.625 208.625 M267.470 208.625 C 270.250 208.651,274.750 208.651,277.470 208.625 C 280.191 208.599,277.917 208.578,272.417 208.578 C 266.917 208.578,264.691 208.599,267.470 208.625 M209.636 209.130 C 209.882 209.385,210.115 209.572,210.153 209.546 C 210.250 209.481,209.473 208.667,209.315 208.667 C 209.245 208.667,209.389 208.875,209.636 209.130 M224.845 209.106 C 224.504 209.539,224.500 209.677,224.500 219.827 L 224.500 230.109 224.958 230.513 L 225.417 230.917 225.042 230.489 L 224.667 230.062 224.667 219.773 L 224.667 209.485 225.076 209.076 C 225.301 208.851,225.419 208.667,225.338 208.667 C 225.257 208.667,225.035 208.864,224.845 209.106 M282.750 208.868 C 282.933 208.973,283.177 209.177,283.292 209.321 C 283.477 209.554,283.489 209.550,283.397 209.287 C 283.341 209.124,283.158 208.918,282.991 208.829 C 282.565 208.600,282.345 208.636,282.750 208.868 M261.245 219.750 C 261.245 225.342,261.266 227.605,261.292 224.780 C 261.317 221.954,261.317 217.379,261.292 214.613 C 261.266 211.847,261.245 214.158,261.245 219.750 M210.245 219.833 C 210.245 225.379,210.266 227.648,210.292 224.875 C 210.317 222.102,210.317 217.565,210.292 214.792 C 210.266 212.019,210.245 214.287,210.245 219.833 M246.912 219.750 C 246.912 225.250,246.933 227.476,246.958 224.696 C 246.984 221.917,246.984 217.417,246.958 214.696 C 246.933 211.976,246.912 214.250,246.912 219.750 M283.578 219.833 C 283.578 225.379,283.599 227.648,283.625 224.875 C 283.651 222.102,283.651 217.565,283.625 214.792 C 283.599 212.019,283.578 214.287,283.578 219.833 M191.000 219.750 L 191.000 227.833 199.083 227.833 L 207.167 227.833 207.167 219.750 L 207.167 211.667 199.083 211.667 L 191.000 211.667 191.000 219.750 M227.500 219.750 L 227.500 227.833 235.667 227.833 L 243.833 227.833 243.833 219.750 L 243.833 211.667 235.667 211.667 L 227.500 211.667 227.500 219.750 M264.333 219.750 L 264.333 227.833 272.417 227.833 L 280.500 227.833 280.500 219.750 L 280.500 211.667 272.417 211.667 L 264.333 211.667 264.333 219.750 M158.675 216.754 C 159.734 217.852,160.885 219.088,161.233 219.500 C 161.581 219.912,161.747 220.063,161.601 219.833 C 161.217 219.232,158.740 216.559,157.667 215.587 C 157.162 215.131,157.616 215.656,158.675 216.754 M138.707 241.873 L 138.748 255.750 138.792 241.958 L 138.835 228.167 143.750 228.167 L 148.665 228.167 148.709 242.083 L 148.753 256.000 148.751 242.042 L 148.750 228.083 143.708 228.039 L 138.667 227.995 138.707 241.873 M115.667 229.152 C 115.896 229.339,116.158 229.493,116.250 229.494 C 116.428 229.495,116.127 229.264,115.583 228.983 C 115.362 228.869,115.390 228.925,115.667 229.152 M112.792 229.262 C 112.169 229.600,112.207 229.741,112.833 229.417 C 113.108 229.274,113.333 229.123,113.333 229.079 C 113.333 228.972,113.315 228.978,112.792 229.262 M187.833 229.943 C 187.833 230.034,188.040 230.290,188.292 230.513 L 188.750 230.917 188.333 230.417 C 188.104 230.142,187.898 229.885,187.875 229.847 C 187.852 229.809,187.833 229.852,187.833 229.943 M111.125 230.262 C 110.502 230.600,110.540 230.741,111.167 230.417 C 111.442 230.274,111.667 230.123,111.667 230.079 C 111.667 229.972,111.649 229.978,111.125 230.262 M167.929 231.167 C 167.990 231.396,168.110 231.696,168.195 231.833 C 168.302 232.007,168.315 231.956,168.238 231.667 C 168.176 231.438,168.057 231.137,167.972 231.000 C 167.865 230.826,167.851 230.877,167.929 231.167 M121.612 232.847 C 121.819 233.097,122.833 233.735,122.833 233.615 C 122.833 233.576,122.515 233.334,122.125 233.077 C 121.735 232.820,121.505 232.716,121.612 232.847 M105.792 233.429 C 105.169 233.767,105.207 233.907,105.833 233.583 C 106.108 233.441,106.333 233.289,106.333 233.246 C 106.333 233.138,106.315 233.145,105.792 233.429 M168.862 233.833 C 168.870 234.266,169.133 234.978,169.138 234.583 C 169.141 234.400,169.079 234.100,169.000 233.917 C 168.912 233.712,168.859 233.680,168.862 233.833 M104.875 233.944 C 104.444 234.118,104.690 234.332,105.292 234.308 C 105.799 234.288,105.830 234.270,105.456 234.214 C 105.202 234.175,105.038 234.074,105.090 233.989 C 105.194 233.820,105.186 233.818,104.875 233.944 M108.083 234.286 C 108.267 234.330,108.604 234.528,108.833 234.725 L 109.250 235.083 108.846 234.625 C 108.624 234.373,108.286 234.175,108.096 234.186 C 107.761 234.205,107.760 234.208,108.083 234.286 M119.907 234.429 C 119.729 234.573,119.683 234.640,119.805 234.578 C 119.926 234.515,120.226 234.404,120.471 234.330 C 120.829 234.222,120.849 234.192,120.574 234.181 C 120.385 234.173,120.085 234.285,119.907 234.429 M119.246 249.333 C 119.246 256.987,119.267 260.119,119.292 256.292 C 119.317 252.465,119.317 246.202,119.292 242.375 C 119.267 238.548,119.246 241.679,119.246 249.333 M170.209 240.250 C 170.211 240.617,170.245 240.747,170.285 240.540 C 170.324 240.332,170.323 240.032,170.281 239.873 C 170.239 239.714,170.207 239.883,170.209 240.250 M188.384 241.766 L 187.917 242.199 188.397 241.850 C 188.873 241.504,188.984 241.500,199.035 241.500 L 209.192 241.500 209.679 241.987 C 209.947 242.255,210.167 242.412,210.167 242.335 C 210.167 242.259,209.936 242.002,209.654 241.765 L 209.141 241.333 198.997 241.333 L 188.852 241.333 188.384 241.766 M235.778 241.497 L 245.973 241.583 246.425 242.000 C 246.829 242.373,246.854 242.378,246.656 242.054 C 246.221 241.340,246.083 241.332,235.617 241.372 L 225.583 241.412 235.778 241.497 M265.083 241.453 C 272.203 241.567,282.783 241.572,282.609 241.461 C 282.503 241.394,277.879 241.354,272.333 241.373 C 266.787 241.393,263.525 241.429,265.083 241.453 M224.845 241.939 C 224.503 242.374,224.500 242.481,224.539 252.647 L 224.578 262.917 224.664 252.527 L 224.750 242.137 225.143 241.819 C 225.360 241.643,225.459 241.500,225.364 241.500 C 225.269 241.500,225.035 241.698,224.845 241.939 M261.245 252.583 C 261.245 258.175,261.266 260.438,261.292 257.613 C 261.317 254.788,261.317 250.213,261.292 247.446 C 261.266 244.680,261.245 246.992,261.245 252.583 M210.207 252.528 C 210.185 257.998,210.124 262.610,210.071 262.778 C 209.984 263.053,209.993 263.055,210.155 262.804 C 210.281 262.610,210.323 259.501,210.292 252.554 L 210.247 242.583 210.207 252.528 M246.912 252.583 C 246.912 258.083,246.933 260.309,246.958 257.530 C 246.984 254.750,246.984 250.250,246.958 247.530 C 246.933 244.809,246.912 247.083,246.912 252.583 M283.578 252.667 C 283.578 258.212,283.599 260.481,283.625 257.708 C 283.651 254.935,283.651 250.398,283.625 247.625 C 283.599 244.852,283.578 247.121,283.578 252.667 M170.565 245.833 C 170.565 247.071,170.592 247.577,170.624 246.958 C 170.656 246.340,170.656 245.327,170.624 244.708 C 170.592 244.090,170.565 244.596,170.565 245.833 M191.000 252.583 L 191.000 260.667 199.083 260.667 L 207.167 260.667 207.167 252.583 L 207.167 244.500 199.083 244.500 L 191.000 244.500 191.000 252.583 M227.500 252.583 L 227.500 260.667 235.667 260.667 L 243.833 260.667 243.833 252.583 L 243.833 244.500 235.667 244.500 L 227.500 244.500 227.500 252.583 M264.333 252.583 L 264.333 260.667 272.417 260.667 L 280.500 260.667 280.500 252.583 L 280.500 244.500 272.417 244.500 L 264.333 244.500 264.333 252.583 M170.205 251.500 C 170.205 251.821,170.240 251.952,170.282 251.792 C 170.323 251.631,170.323 251.369,170.282 251.208 C 170.240 251.048,170.205 251.179,170.205 251.500 M138.136 256.520 C 137.889 256.784,137.758 257.000,137.844 257.000 C 138.052 257.000,138.667 256.377,138.667 256.167 C 138.667 255.952,138.663 255.954,138.136 256.520 M168.938 257.188 C 168.799 257.882,168.933 258.017,169.083 257.333 C 169.147 257.045,169.164 256.775,169.121 256.732 C 169.079 256.690,168.996 256.895,168.938 257.188 M136.333 258.241 C 136.333 258.287,136.558 258.441,136.833 258.583 C 137.108 258.726,137.333 258.804,137.333 258.759 C 137.333 258.713,137.108 258.559,136.833 258.417 C 136.558 258.274,136.333 258.196,136.333 258.241 M309.381 261.917 C 309.382 262.375,309.415 262.543,309.453 262.289 C 309.491 262.036,309.490 261.661,309.451 261.456 C 309.411 261.251,309.380 261.458,309.381 261.917 M141.500 261.408 C 141.500 261.454,141.725 261.608,142.000 261.750 C 142.275 261.892,142.500 261.971,142.500 261.925 C 142.500 261.879,142.275 261.726,142.000 261.583 C 141.725 261.441,141.500 261.362,141.500 261.408 M166.861 262.825 C 166.764 263.105,166.719 263.333,166.763 263.333 C 166.875 263.333,167.190 262.468,167.107 262.385 C 167.069 262.347,166.959 262.545,166.861 262.825 M187.833 262.777 C 187.833 262.867,188.040 263.124,188.292 263.346 L 188.750 263.750 188.333 263.250 C 188.104 262.975,187.898 262.719,187.875 262.681 C 187.852 262.642,187.833 262.686,187.833 262.777 M308.280 265.758 C 307.888 266.579,307.943 266.719,308.353 265.943 C 308.539 265.590,308.661 265.272,308.625 265.236 C 308.589 265.200,308.434 265.435,308.280 265.758 M164.516 267.260 C 164.324 267.586,164.242 267.807,164.334 267.749 C 164.515 267.638,165.056 266.667,164.937 266.667 C 164.898 266.667,164.709 266.934,164.516 267.260 M307.500 267.167 C 307.304 267.442,307.181 267.667,307.227 267.667 C 307.273 267.667,307.471 267.442,307.667 267.167 C 307.862 266.892,307.985 266.667,307.939 266.667 C 307.894 266.667,307.696 266.892,307.500 267.167 M305.995 268.947 C 305.402 269.560,305.179 269.841,305.500 269.572 C 306.086 269.081,307.263 267.833,307.140 267.833 C 307.103 267.833,306.588 268.335,305.995 268.947 M162.261 270.625 C 161.901 271.085,161.872 271.163,162.151 270.919 C 162.486 270.627,162.926 270.000,162.798 270.000 C 162.771 270.000,162.530 270.281,162.261 270.625 M302.667 271.250 C 302.438 271.381,302.325 271.488,302.417 271.488 C 302.508 271.488,302.771 271.381,303.000 271.250 C 303.229 271.119,303.342 271.012,303.250 271.012 C 303.158 271.012,302.896 271.119,302.667 271.250 M195.611 272.292 C 214.694 272.315,245.969 272.315,265.111 272.292 C 284.254 272.268,268.642 272.249,230.417 272.249 C 192.192 272.249,176.529 272.268,195.611 272.292 M156.667 276.435 C 144.395 287.179,127.147 289.894,112.250 283.427 L 111.250 282.993 114.838 286.538 C 116.811 288.488,119.309 290.833,120.390 291.750 L 122.354 293.417 119.635 293.506 C 117.604 293.573,118.404 293.605,122.799 293.631 L 128.682 293.667 129.091 294.076 C 129.373 294.358,129.500 294.670,129.500 295.083 C 129.500 295.497,129.373 295.808,129.091 296.091 L 128.682 296.500 122.799 296.537 L 116.917 296.573 121.750 296.662 L 126.583 296.750 128.787 298.378 C 151.178 314.915,179.231 322.948,208.333 321.158 C 221.473 320.349,234.457 317.247,247.583 311.780 C 255.630 308.429,272.098 298.800,273.408 296.681 C 273.488 296.552,270.929 296.498,264.468 296.495 C 254.917 296.489,255.112 296.505,254.694 295.719 C 254.395 295.159,254.460 294.740,254.931 294.179 L 255.363 293.667 275.723 293.627 C 290.760 293.598,293.673 293.565,286.863 293.502 L 277.644 293.417 278.613 292.590 C 280.490 290.990,282.600 289.065,284.415 287.295 L 286.250 285.506 228.033 285.503 C 165.721 285.500,169.077 285.543,168.770 284.743 C 168.458 283.930,168.704 283.075,169.345 282.744 C 169.757 282.531,177.441 282.500,229.473 282.500 L 289.129 282.500 290.524 280.958 C 292.222 279.081,295.167 275.579,295.167 275.437 C 295.167 275.380,264.285 275.335,226.542 275.337 L 157.917 275.341 156.667 276.435 M221.258 294.076 C 221.794 294.612,221.816 295.570,221.304 296.114 L 220.942 296.500 178.483 296.500 L 136.024 296.500 135.679 296.061 C 135.199 295.451,135.227 294.591,135.742 294.076 L 136.152 293.667 178.500 293.667 L 220.848 293.667 221.258 294.076 M279.208 296.625 C 282.302 296.650,287.365 296.650,290.458 296.625 C 293.552 296.600,291.021 296.579,284.833 296.579 C 278.646 296.579,276.115 296.600,279.208 296.625 " stroke="none" fill="#a8d9ed" fill-rule="evenodd"></path><path id="path2" d="M0.000 200.000 L 0.000 400.000 200.000 400.000 L 400.000 400.000 400.000 200.000 L 400.000 0.000 200.000 0.000 L 0.000 0.000 0.000 200.000 M205.833 78.669 C 229.614 79.893,252.012 87.699,270.799 101.311 C 273.432 103.219,273.436 103.222,274.890 103.564 C 277.383 104.150,279.403 105.932,280.229 108.274 C 280.382 108.707,280.819 109.272,281.442 109.844 C 281.978 110.335,284.009 112.315,285.956 114.244 L 289.495 117.750 295.039 117.844 L 300.583 117.938 302.176 118.443 C 307.249 120.051,310.969 124.018,312.201 129.134 C 312.533 130.514,312.555 131.164,312.650 142.750 C 312.743 154.022,312.772 154.966,313.053 155.583 C 313.539 156.655,314.415 159.056,315.332 161.833 C 324.093 188.359,323.444 216.941,313.478 243.404 L 312.667 245.558 312.664 252.987 C 312.660 262.661,312.464 264.425,311.090 267.153 C 308.358 272.578,303.780 275.305,297.333 275.346 L 295.250 275.359 293.368 277.638 C 292.334 278.891,290.956 280.498,290.308 281.208 L 289.129 282.500 290.194 282.500 C 291.803 282.500,292.641 283.354,292.164 284.507 C 291.786 285.418,291.508 285.500,288.755 285.503 L 286.250 285.506 284.417 287.298 C 282.878 288.803,280.236 291.206,278.083 293.059 L 277.583 293.489 286.808 293.495 L 296.033 293.500 296.600 294.067 C 297.217 294.683,297.295 295.101,296.929 295.809 C 296.480 296.677,296.629 296.667,284.674 296.667 L 273.529 296.667 271.890 297.896 C 265.208 302.904,255.281 308.574,247.583 311.780 C 239.045 315.336,231.585 317.614,223.167 319.235 C 189.930 325.636,155.535 317.991,128.500 298.193 L 126.417 296.668 121.692 296.667 L 116.967 296.667 116.400 296.100 C 115.694 295.394,115.672 294.852,116.319 294.128 L 116.805 293.583 119.580 293.500 L 122.355 293.417 120.390 291.750 C 119.310 290.833,116.811 288.503,114.838 286.571 C 111.386 283.192,111.181 283.022,109.436 282.106 C 96.387 275.251,88.343 262.557,87.410 247.347 C 87.301 245.564,87.232 245.284,86.322 242.901 C 76.799 217.965,75.989 189.265,84.084 163.587 C 100.687 110.921,150.973 75.847,205.833 78.669 M133.750 121.388 C 129.685 122.504,126.642 125.612,125.645 129.667 C 125.351 130.862,125.337 132.515,125.335 167.625 L 125.333 204.333 129.238 204.333 C 136.488 204.333,144.613 206.368,148.997 209.281 C 149.316 209.493,149.632 209.667,149.700 209.667 C 150.050 209.667,153.825 212.263,155.647 213.758 C 156.588 214.529,158.500 216.357,159.765 217.696 C 161.098 219.105,163.444 222.204,164.412 223.833 C 164.766 224.429,165.214 225.179,165.406 225.500 C 166.764 227.758,168.687 232.501,169.259 235.000 C 169.374 235.504,169.631 236.629,169.829 237.500 C 172.340 248.549,168.969 262.849,161.862 271.293 L 161.124 272.169 230.937 272.126 L 300.750 272.083 302.222 271.453 C 305.669 269.979,308.148 267.156,309.131 263.587 C 309.386 262.664,309.412 258.662,309.457 213.958 L 309.506 165.333 223.661 165.333 C 148.646 165.333,137.757 165.303,137.345 165.089 C 136.457 164.630,136.367 163.282,137.179 162.598 L 137.692 162.167 223.604 162.167 L 309.516 162.167 309.451 146.458 C 309.379 129.036,309.432 129.853,308.222 127.345 C 306.835 124.471,304.166 122.271,301.001 121.393 C 299.591 121.001,299.552 121.000,290.126 121.000 L 280.667 121.000 280.667 128.908 C 280.667 137.451,280.622 137.998,279.799 139.500 C 278.214 142.396,276.267 143.167,270.541 143.167 C 264.102 143.167,261.701 142.030,260.159 138.250 L 259.751 137.250 259.702 129.125 L 259.652 121.000 217.326 121.000 L 175.000 121.000 175.000 128.768 C 175.000 139.050,174.685 140.169,171.251 142.089 C 167.726 144.060,158.636 143.534,156.254 141.221 C 154.122 139.150,154.100 139.032,154.038 129.292 L 153.985 121.000 144.534 121.011 C 135.335 121.022,135.048 121.032,133.750 121.388 M173.070 176.154 L 173.500 176.558 173.500 186.849 C 173.500 192.509,173.453 197.261,173.396 197.409 C 173.111 198.153,172.918 198.167,162.349 198.167 C 151.791 198.167,151.703 198.160,151.352 197.390 C 151.020 196.663,151.098 176.838,151.434 176.358 C 151.897 175.699,152.188 175.682,162.528 175.716 L 172.640 175.750 173.070 176.154 M209.788 176.212 L 210.250 176.674 210.296 186.710 C 210.329 194.056,210.289 196.871,210.147 197.214 C 209.746 198.183,209.934 198.167,198.997 198.167 C 188.709 198.167,188.540 198.157,188.047 197.514 C 187.782 197.169,187.741 176.985,188.004 176.492 C 188.445 175.668,188.367 175.673,199.205 175.713 L 209.326 175.750 209.788 176.212 M245.962 175.845 C 247.012 176.211,247.000 176.085,247.000 186.906 C 247.000 197.581,247.000 197.586,246.060 197.975 C 245.701 198.124,243.021 198.163,235.470 198.129 L 225.360 198.083 224.930 197.679 L 224.500 197.275 224.500 187.043 C 224.500 176.063,224.481 176.304,225.388 175.910 C 226.067 175.614,245.128 175.554,245.962 175.845 M282.733 175.899 C 283.667 176.289,283.667 176.287,283.667 187.014 C 283.667 197.398,283.660 197.489,282.849 197.909 C 282.261 198.213,262.885 198.305,262.102 198.007 C 261.159 197.649,261.167 197.734,261.167 186.967 C 261.167 176.105,261.169 176.084,262.167 175.813 C 263.058 175.571,282.139 175.650,282.733 175.899 M209.788 209.045 L 210.250 209.507 210.296 219.543 C 210.329 226.889,210.289 229.705,210.147 230.047 C 209.746 231.017,209.940 231.000,198.938 231.000 L 188.859 231.000 188.346 230.569 L 187.833 230.137 187.833 219.856 C 187.833 208.708,187.807 209.039,188.726 208.663 C 188.923 208.583,193.638 208.532,199.205 208.550 L 209.326 208.583 209.788 209.045 M245.962 208.678 C 247.012 209.044,247.000 208.922,247.000 219.709 C 247.000 226.408,246.942 229.616,246.815 229.980 C 246.452 231.023,246.707 231.000,235.604 231.000 L 225.526 231.000 225.013 230.569 L 224.500 230.137 224.500 219.856 C 224.500 208.708,224.474 209.036,225.393 208.665 C 225.932 208.448,245.336 208.460,245.962 208.678 M282.733 208.732 C 283.667 209.122,283.667 209.120,283.667 219.847 C 283.667 230.231,283.660 230.323,282.849 230.742 C 282.261 231.046,262.885 231.138,262.102 230.840 C 261.159 230.482,261.167 230.575,261.167 219.717 C 261.168 208.749,261.162 208.817,262.198 208.619 C 263.320 208.405,282.198 208.509,282.733 208.732 M138.832 241.792 C 138.831 258.407,139.076 257.000,136.177 257.040 L 134.531 257.063 135.974 257.938 C 136.767 258.419,137.867 259.082,138.417 259.410 C 138.967 259.738,140.440 260.634,141.691 261.400 L 143.965 262.794 144.559 262.439 C 145.432 261.918,147.521 260.593,149.372 259.389 C 150.264 258.808,151.025 258.333,151.064 258.333 C 151.126 258.333,152.839 257.210,152.970 257.084 C 152.999 257.056,152.249 257.030,151.303 257.026 C 149.596 257.021,149.580 257.017,149.125 256.508 L 148.667 255.995 148.667 242.081 L 148.667 228.167 143.750 228.167 L 138.833 228.167 138.832 241.792 M112.667 229.478 C 111.796 230.009,109.705 231.263,108.020 232.263 L 104.957 234.083 106.718 234.131 C 108.452 234.177,108.486 234.186,108.907 234.685 L 109.333 235.192 109.333 249.179 L 109.333 263.167 114.250 263.167 L 119.167 263.167 119.167 249.428 C 119.167 232.890,118.940 234.168,121.875 234.165 L 123.583 234.163 122.500 233.463 C 121.904 233.078,121.289 232.685,121.133 232.590 C 120.348 232.111,118.471 230.919,117.583 230.336 C 117.033 229.975,116.433 229.608,116.250 229.521 C 116.067 229.433,115.658 229.168,115.343 228.931 C 114.571 228.351,114.486 228.369,112.667 229.478 M209.706 241.820 L 210.250 242.306 210.296 252.359 C 210.329 259.718,210.289 262.538,210.147 262.881 C 209.746 263.850,209.940 263.833,198.938 263.833 L 188.859 263.833 188.346 263.402 L 187.833 262.970 187.833 252.639 L 187.833 242.308 188.321 241.821 L 188.808 241.333 198.985 241.333 L 209.161 241.333 209.706 241.820 M246.067 241.523 C 247.001 241.949,247.000 241.933,247.000 252.572 C 247.000 263.216,246.991 263.321,246.081 263.668 C 245.809 263.771,241.837 263.833,235.560 263.833 L 225.474 263.833 224.987 263.346 L 224.500 262.859 224.500 252.633 C 224.500 241.546,224.474 241.869,225.393 241.499 C 225.958 241.271,245.564 241.294,246.067 241.523 M282.824 241.578 C 283.654 242.008,283.667 242.174,283.667 252.681 C 283.667 263.065,283.660 263.156,282.849 263.575 C 282.261 263.879,262.885 263.971,262.102 263.674 C 261.159 263.315,261.167 263.405,261.167 252.583 C 261.167 241.845,261.166 241.858,262.050 241.502 C 262.739 241.225,282.279 241.297,282.824 241.578 " stroke="none" fill="#f7fafa" fill-rule="evenodd"></path><path id="path3" d="M124.083 207.662 C 112.260 209.550,102.936 215.423,96.821 224.833 C 95.538 226.808,95.304 227.223,94.318 229.282 C 86.388 245.838,91.608 266.373,106.333 276.546 C 120.692 286.467,139.963 286.172,152.600 275.839 C 152.884 275.607,153.447 275.156,153.850 274.837 C 156.080 273.073,159.158 269.640,161.249 266.583 C 162.037 265.431,164.167 261.572,164.167 261.296 C 164.167 261.217,164.324 260.845,164.516 260.469 C 167.950 253.737,168.379 242.028,165.500 233.583 C 159.613 216.318,141.373 204.902,124.083 207.662 M115.381 225.227 C 115.584 225.351,117.571 226.608,119.797 228.018 C 122.023 229.429,123.974 230.658,124.134 230.750 C 124.293 230.842,125.421 231.554,126.640 232.333 C 127.859 233.112,129.132 233.908,129.470 234.101 C 130.655 234.780,130.917 235.972,130.070 236.833 C 129.661 237.248,129.646 237.250,126.084 237.303 L 122.509 237.357 122.463 251.220 C 122.427 262.108,122.371 265.163,122.203 265.457 C 121.703 266.332,121.555 266.348,114.068 266.297 L 107.139 266.250 106.653 265.706 L 106.167 265.161 106.167 251.247 L 106.167 237.333 102.578 237.333 C 98.099 237.333,97.500 237.142,97.500 235.715 C 97.500 234.784,97.524 234.768,108.083 228.531 C 109.092 227.935,110.629 227.019,111.500 226.496 C 114.209 224.867,114.592 224.742,115.381 225.227 M151.346 225.487 L 151.833 225.974 151.833 239.987 L 151.833 254.000 155.500 254.000 C 159.530 254.000,159.668 254.034,159.933 255.090 C 160.223 256.245,160.056 256.414,156.325 258.750 C 154.697 259.769,152.699 261.035,151.583 261.752 C 151.125 262.047,150.300 262.570,149.750 262.916 C 149.200 263.261,148.460 263.737,148.106 263.974 C 147.752 264.211,147.326 264.482,147.159 264.577 C 146.992 264.672,146.249 265.114,145.508 265.559 C 144.060 266.429,143.742 266.463,142.858 265.841 C 142.615 265.671,141.442 264.950,140.250 264.239 C 139.058 263.529,137.896 262.819,137.667 262.662 C 137.275 262.394,130.784 258.454,129.184 257.514 C 127.446 256.492,126.974 255.344,127.909 254.409 L 128.318 254.000 131.992 254.000 L 135.667 254.000 135.667 239.931 L 135.667 225.863 136.179 225.431 L 136.692 225.000 143.776 225.000 L 150.859 225.000 151.346 225.487 " stroke="none" fill="#fb7c7c" fill-rule="evenodd"></path><path id="path4" d="M162.875 103.458 C 163.769 103.488,165.231 103.488,166.125 103.458 C 167.019 103.428,166.287 103.403,164.500 103.403 C 162.712 103.403,161.981 103.428,162.875 103.458 M268.708 103.458 C 269.694 103.487,271.306 103.487,272.292 103.458 C 273.277 103.428,272.471 103.404,270.500 103.404 C 268.529 103.404,267.723 103.428,268.708 103.458 M159.959 106.666 C 159.203 106.894,158.263 107.754,157.741 108.696 L 157.250 109.583 157.205 123.051 C 157.151 138.782,157.083 138.181,159.074 139.411 L 159.891 139.917 164.320 139.917 L 168.750 139.917 169.538 139.454 C 171.982 138.017,171.852 138.951,171.797 123.167 L 171.750 109.750 171.298 108.981 C 170.757 108.061,169.854 107.236,168.928 106.815 C 168.194 106.482,160.970 106.362,159.959 106.666 M265.957 106.738 C 264.954 107.096,263.905 108.070,263.386 109.127 L 262.917 110.083 262.871 123.153 C 262.820 137.678,262.790 137.231,263.924 138.487 C 265.144 139.837,265.513 139.917,270.527 139.917 L 274.971 139.917 275.678 139.417 C 277.752 137.950,277.691 138.473,277.632 122.750 C 277.578 108.367,277.656 109.282,276.350 107.795 C 275.289 106.586,274.893 106.499,270.489 106.507 C 267.663 106.513,266.410 106.576,265.957 106.738 M174.912 114.375 L 174.917 117.917 217.250 117.917 L 259.583 117.918 217.295 117.875 L 175.007 117.833 174.957 114.333 L 174.906 110.833 174.912 114.375 M140.458 117.958 C 142.956 117.984,147.044 117.984,149.542 117.958 C 152.040 117.932,149.996 117.911,145.000 117.911 C 140.004 117.911,137.960 117.932,140.458 117.958 M285.125 117.958 C 287.623 117.984,291.710 117.984,294.208 117.958 C 296.706 117.932,294.662 117.911,289.667 117.911 C 284.671 117.911,282.627 117.932,285.125 117.958 M154.077 128.417 C 154.077 132.633,154.098 134.334,154.125 132.197 C 154.151 130.059,154.151 126.609,154.125 124.530 C 154.098 122.451,154.077 124.200,154.077 128.417 M174.910 128.500 C 174.910 132.762,174.932 134.506,174.958 132.375 C 174.985 130.244,174.985 126.756,174.958 124.625 C 174.932 122.494,174.910 124.237,174.910 128.500 M122.249 168.250 C 122.249 188.325,122.268 196.562,122.292 186.555 C 122.315 176.548,122.315 160.123,122.292 150.055 C 122.268 139.987,122.249 148.175,122.249 168.250 M309.580 147.000 C 309.580 155.387,309.600 158.819,309.625 154.625 C 309.650 150.431,309.650 143.569,309.625 139.375 C 309.600 135.181,309.580 138.612,309.580 147.000 M261.500 140.385 C 261.500 140.414,261.744 140.658,262.042 140.927 L 262.583 141.417 262.094 140.875 C 261.638 140.370,261.500 140.257,261.500 140.385 M223.708 165.292 L 309.499 165.334 309.542 213.417 L 309.584 261.500 309.584 213.375 L 309.583 165.250 223.750 165.250 L 137.917 165.250 223.708 165.292 M173.412 186.917 C 173.412 192.417,173.433 194.643,173.458 191.863 C 173.484 189.084,173.484 184.584,173.458 181.863 C 173.433 179.143,173.412 181.417,173.412 186.917 M187.912 187.000 C 187.912 192.546,187.933 194.815,187.958 192.042 C 187.984 189.269,187.984 184.731,187.958 181.958 C 187.933 179.185,187.912 181.454,187.912 187.000 M154.207 186.958 L 154.167 195.167 162.375 195.127 L 170.583 195.087 162.460 195.042 L 154.337 194.997 154.292 186.873 L 154.247 178.750 154.207 186.958 M190.873 186.958 L 190.833 195.167 199.042 195.127 L 207.250 195.087 199.127 195.042 L 191.003 194.997 190.958 186.873 L 190.913 178.750 190.873 186.958 M264.248 186.917 L 264.250 195.083 272.417 195.083 L 280.583 195.083 280.586 186.917 L 280.588 178.750 280.543 186.875 L 280.497 195.000 272.417 195.000 L 264.337 195.000 264.291 186.875 L 264.245 178.750 264.248 186.917 M231.542 195.125 C 233.810 195.151,237.523 195.151,239.792 195.125 C 242.060 195.099,240.204 195.077,235.667 195.077 C 231.129 195.077,229.273 195.099,231.542 195.125 M157.375 198.125 C 160.102 198.151,164.565 198.151,167.292 198.125 C 170.019 198.099,167.787 198.078,162.333 198.078 C 156.879 198.078,154.648 198.099,157.375 198.125 M194.042 198.125 C 196.769 198.151,201.231 198.151,203.958 198.125 C 206.685 198.099,204.454 198.078,199.000 198.078 C 193.546 198.078,191.315 198.099,194.042 198.125 M230.887 198.125 C 233.621 198.151,238.046 198.151,240.720 198.125 C 243.395 198.099,241.158 198.078,235.750 198.078 C 230.342 198.078,228.153 198.099,230.887 198.125 M267.554 198.125 C 270.287 198.151,274.712 198.151,277.387 198.125 C 280.062 198.099,277.825 198.078,272.417 198.078 C 267.008 198.078,264.820 198.099,267.554 198.125 M128.621 207.287 C 128.917 207.324,129.442 207.324,129.788 207.288 C 130.134 207.252,129.892 207.222,129.250 207.221 C 128.608 207.221,128.325 207.250,128.621 207.287 M120.500 208.167 L 120.083 208.300 120.500 208.300 C 120.729 208.300,121.104 208.240,121.333 208.167 L 121.750 208.033 121.333 208.033 C 121.104 208.033,120.729 208.093,120.500 208.167 M136.750 208.167 C 137.455 208.346,138.060 208.346,137.500 208.167 C 137.271 208.093,136.896 208.035,136.667 208.036 C 136.292 208.039,136.301 208.052,136.750 208.167 M116.667 209.250 C 116.346 209.374,116.196 209.475,116.333 209.475 C 116.471 209.475,116.846 209.374,117.167 209.250 C 117.487 209.126,117.638 209.025,117.500 209.025 C 117.362 209.025,116.987 209.126,116.667 209.250 M140.833 209.250 C 141.154 209.374,141.529 209.475,141.667 209.475 C 141.804 209.475,141.654 209.374,141.333 209.250 C 141.012 209.126,140.637 209.025,140.500 209.025 C 140.362 209.025,140.512 209.126,140.833 209.250 M143.167 210.069 C 143.396 210.192,143.771 210.338,144.000 210.396 C 144.229 210.453,144.117 210.355,143.750 210.179 C 142.996 209.816,142.528 209.728,143.167 210.069 M187.912 219.833 C 187.912 225.379,187.933 227.648,187.958 224.875 C 187.984 222.102,187.984 217.565,187.958 214.792 C 187.933 212.019,187.912 214.287,187.912 219.833 M114.083 210.256 C 113.667 210.457,113.653 210.480,114.000 210.395 C 114.472 210.279,115.003 210.009,114.750 210.013 C 114.658 210.014,114.358 210.123,114.083 210.256 M145.181 210.889 C 145.419 211.079,148.885 212.838,148.750 212.701 C 148.542 212.489,145.439 210.833,145.250 210.833 C 145.174 210.833,145.142 210.858,145.181 210.889 M111.625 211.345 C 111.281 211.526,111.000 211.712,111.000 211.757 C 111.000 211.832,112.316 211.216,112.486 211.063 C 112.678 210.889,112.177 211.053,111.625 211.345 M190.914 219.750 L 190.917 227.917 199.083 227.919 L 207.250 227.922 199.127 227.876 L 191.003 227.830 190.957 219.707 L 190.912 211.583 190.914 219.750 M264.248 219.750 L 264.250 227.917 272.417 227.917 L 280.583 227.917 280.586 219.750 L 280.588 211.583 280.543 219.708 L 280.497 227.833 272.417 227.833 L 264.337 227.833 264.291 219.708 L 264.245 211.583 264.248 219.750 M110.125 212.178 C 109.781 212.359,109.500 212.545,109.500 212.591 C 109.500 212.636,109.800 212.520,110.167 212.333 C 110.533 212.146,110.833 211.957,110.833 211.913 C 110.833 211.804,110.832 211.805,110.125 212.178 M108.367 213.238 C 107.593 213.786,107.484 213.942,108.138 213.568 C 108.443 213.393,108.771 213.156,108.867 213.042 C 109.113 212.747,108.997 212.793,108.367 213.238 M149.000 212.903 C 149.000 212.946,149.731 213.475,150.625 214.078 C 151.519 214.681,152.494 215.370,152.792 215.609 C 153.090 215.847,153.333 215.996,153.333 215.939 C 153.333 215.882,152.790 215.434,152.125 214.942 C 150.753 213.928,149.000 212.784,149.000 212.903 M106.708 214.350 C 106.319 214.626,106.000 214.889,106.000 214.934 C 106.000 214.979,106.337 214.784,106.750 214.500 C 107.162 214.216,107.500 213.950,107.500 213.909 C 107.500 213.794,107.468 213.812,106.708 214.350 M103.829 216.642 C 102.777 217.545,101.324 218.951,100.600 219.767 C 99.379 221.141,99.422 221.109,101.183 219.323 C 102.228 218.264,103.702 216.883,104.458 216.256 C 105.693 215.231,105.938 215.000,105.787 215.000 C 105.762 215.000,104.881 215.739,103.829 216.642 M153.672 216.292 C 153.675 216.360,153.881 216.561,154.130 216.737 L 154.583 217.057 154.179 216.612 C 153.755 216.144,153.663 216.086,153.672 216.292 M154.667 217.078 C 154.667 217.172,157.278 219.757,157.653 220.035 C 157.798 220.142,157.206 219.503,156.337 218.615 C 154.787 217.031,154.667 216.920,154.667 217.078 M157.833 220.385 C 157.833 220.414,158.077 220.658,158.375 220.927 L 158.917 221.417 158.427 220.875 C 157.971 220.370,157.833 220.257,157.833 220.385 M98.398 222.375 C 97.965 222.948,97.538 223.510,97.451 223.625 C 97.364 223.740,97.330 223.833,97.376 223.833 C 97.422 223.833,97.788 223.405,98.188 222.881 C 99.250 221.493,99.361 221.333,99.269 221.333 C 99.224 221.333,98.831 221.802,98.398 222.375 M159.224 222.000 C 159.463 222.321,160.114 223.240,160.671 224.042 C 161.229 224.844,161.722 225.500,161.768 225.500 C 161.895 225.500,159.904 222.662,159.312 222.000 L 158.790 221.417 159.224 222.000 M96.889 224.458 C 96.732 224.710,96.524 225.029,96.427 225.167 C 96.281 225.373,96.294 225.383,96.500 225.221 C 96.776 225.005,97.404 224.000,97.263 224.000 C 97.214 224.000,97.046 224.206,96.889 224.458 M136.028 225.553 L 135.665 225.940 135.708 240.012 L 135.752 254.083 135.793 240.011 L 135.833 225.938 136.196 225.552 C 136.395 225.340,136.521 225.167,136.475 225.167 C 136.429 225.167,136.228 225.341,136.028 225.553 M112.708 225.761 C 112.319 225.995,112.000 226.225,112.000 226.273 C 112.000 226.363,113.124 225.724,113.408 225.473 C 113.695 225.220,113.428 225.330,112.708 225.761 M115.500 225.390 C 115.500 225.432,115.750 225.615,116.056 225.795 C 116.362 225.976,116.831 226.254,117.098 226.415 L 117.583 226.706 117.167 226.361 C 116.690 225.967,115.500 225.273,115.500 225.390 M95.980 225.875 C 95.871 226.081,95.673 226.438,95.540 226.667 C 95.308 227.066,95.310 227.070,95.578 226.750 C 95.911 226.355,96.377 225.500,96.260 225.500 C 96.215 225.500,96.089 225.669,95.980 225.875 M151.746 240.000 C 151.746 247.746,151.767 250.915,151.792 247.042 C 151.817 243.169,151.817 236.831,151.792 232.958 C 151.767 229.085,151.746 232.254,151.746 240.000 M162.250 226.500 C 162.392 226.775,162.546 227.000,162.592 227.000 C 162.638 227.000,162.559 226.775,162.417 226.500 C 162.274 226.225,162.121 226.000,162.075 226.000 C 162.029 226.000,162.108 226.225,162.250 226.500 M111.042 226.761 C 110.652 226.995,110.333 227.225,110.333 227.273 C 110.333 227.363,111.458 226.724,111.742 226.473 C 112.028 226.220,111.761 226.330,111.042 226.761 M117.667 226.725 C 117.667 226.768,118.163 227.117,118.769 227.499 C 119.375 227.882,120.819 228.796,121.977 229.531 C 123.136 230.266,123.971 230.756,123.833 230.620 C 123.696 230.485,122.346 229.592,120.833 228.637 C 117.482 226.518,117.667 226.630,117.667 226.725 M109.625 227.595 C 109.002 227.933,109.040 228.074,109.667 227.750 C 109.942 227.608,110.167 227.456,110.167 227.412 C 110.167 227.305,110.149 227.311,109.625 227.595 M94.252 229.035 C 93.838 229.908,93.503 230.688,93.508 230.769 C 93.512 230.850,93.880 230.167,94.325 229.250 C 94.770 228.333,95.105 227.553,95.069 227.516 C 95.033 227.478,94.665 228.162,94.252 229.035 M163.000 227.728 C 163.000 227.908,163.828 229.500,163.922 229.500 C 163.968 229.500,163.808 229.106,163.566 228.625 C 163.101 227.699,163.000 227.539,163.000 227.728 M231.542 227.958 C 233.810 227.984,237.523 227.984,239.792 227.958 C 242.060 227.932,240.204 227.911,235.667 227.911 C 231.129 227.911,229.273 227.932,231.542 227.958 M107.375 228.928 C 106.985 229.161,106.667 229.392,106.667 229.440 C 106.667 229.530,107.791 228.891,108.075 228.640 C 108.361 228.387,108.095 228.496,107.375 228.928 M105.212 230.221 C 104.208 230.818,103.333 231.435,103.917 231.134 C 104.493 230.837,106.500 229.617,106.500 229.564 C 106.500 229.458,106.460 229.478,105.212 230.221 M164.178 230.167 C 164.178 230.304,164.291 230.604,164.430 230.833 L 164.681 231.250 164.570 230.833 C 164.410 230.229,164.177 229.832,164.178 230.167 M124.195 230.917 C 124.240 230.963,125.359 231.682,126.681 232.515 C 128.002 233.347,128.971 233.920,128.833 233.786 C 128.544 233.505,124.362 230.833,124.212 230.833 C 124.156 230.833,124.149 230.871,124.195 230.917 M194.054 230.958 C 196.787 230.984,201.212 230.984,203.887 230.958 C 206.562 230.932,204.325 230.911,198.917 230.911 C 193.508 230.911,191.320 230.933,194.054 230.958 M230.887 230.958 C 233.621 230.984,238.046 230.984,240.720 230.958 C 243.395 230.932,241.158 230.911,235.750 230.911 C 230.342 230.911,228.153 230.933,230.887 230.958 M267.554 230.958 C 270.287 230.984,274.712 230.984,277.387 230.958 C 280.062 230.932,277.825 230.911,272.417 230.911 C 267.008 230.911,264.820 230.933,267.554 230.958 M102.042 232.094 C 101.652 232.328,101.333 232.558,101.333 232.606 C 101.333 232.696,102.458 232.058,102.742 231.807 C 103.028 231.553,102.761 231.663,102.042 232.094 M92.750 232.500 C 92.687 232.697,92.674 232.896,92.720 232.942 C 92.765 232.988,92.854 232.864,92.917 232.667 C 92.979 232.470,92.993 232.271,92.947 232.225 C 92.901 232.179,92.813 232.303,92.750 232.500 M165.187 232.667 C 165.184 232.804,165.285 233.142,165.411 233.417 C 165.705 234.060,165.710 233.761,165.417 233.000 C 165.293 232.679,165.190 232.529,165.187 232.667 M100.375 233.094 C 99.985 233.328,99.667 233.558,99.667 233.606 C 99.667 233.696,100.791 233.058,101.075 232.807 C 101.361 232.553,101.095 232.663,100.375 233.094 M98.958 233.929 C 98.335 234.267,98.373 234.407,99.000 234.083 C 99.275 233.941,99.500 233.789,99.500 233.746 C 99.500 233.638,99.482 233.645,98.958 233.929 M129.572 234.324 C 129.841 234.502,130.157 234.820,130.275 235.032 C 130.392 235.243,130.491 235.316,130.494 235.192 C 130.501 234.927,129.551 234.000,129.274 234.001 C 129.169 234.002,129.303 234.147,129.572 234.324 M106.292 234.287 C 106.590 234.324,107.077 234.324,107.375 234.287 C 107.673 234.250,107.429 234.220,106.833 234.220 C 106.237 234.220,105.994 234.250,106.292 234.287 M121.458 234.289 C 121.848 234.324,122.485 234.324,122.875 234.289 C 123.265 234.254,122.946 234.225,122.167 234.225 C 121.388 234.225,121.069 234.254,121.458 234.289 M97.845 234.772 C 97.262 235.514,97.442 236.617,98.212 237.019 C 98.519 237.180,98.504 237.139,98.125 236.781 C 97.558 236.247,97.511 235.410,98.012 234.772 C 98.202 234.531,98.320 234.333,98.274 234.333 C 98.228 234.333,98.035 234.531,97.845 234.772 M91.667 236.000 C 91.554 236.468,91.496 236.884,91.536 236.925 C 91.577 236.965,91.699 236.613,91.808 236.141 C 91.917 235.669,91.975 235.253,91.938 235.216 C 91.901 235.179,91.779 235.532,91.667 236.000 M109.246 249.333 C 109.246 256.987,109.267 260.119,109.292 256.292 C 109.317 252.465,109.317 246.202,109.292 242.375 C 109.267 238.548,109.246 241.679,109.246 249.333 M166.187 235.750 C 166.180 235.842,166.277 236.292,166.405 236.750 C 166.533 237.208,166.638 237.433,166.639 237.250 C 166.641 236.895,166.211 235.468,166.187 235.750 M129.969 236.703 C 129.723 236.958,129.578 237.167,129.648 237.167 C 129.806 237.167,130.583 236.352,130.487 236.287 C 130.448 236.261,130.215 236.448,129.969 236.703 M102.458 237.292 L 106.167 237.340 106.167 251.240 L 106.167 265.141 106.598 265.654 C 106.835 265.936,107.092 266.167,107.169 266.167 C 107.245 266.167,107.088 265.947,106.821 265.679 L 106.333 265.192 106.333 251.179 L 106.333 237.167 102.542 237.205 L 98.750 237.243 102.458 237.292 M122.374 250.875 L 122.415 264.583 122.458 250.962 L 122.502 237.340 125.876 237.291 L 129.250 237.243 125.792 237.205 L 122.333 237.167 122.374 250.875 M90.768 240.287 C 90.707 240.725,90.630 241.758,90.598 242.583 C 90.565 243.408,90.568 243.821,90.603 243.500 C 90.953 240.305,91.013 239.624,90.951 239.562 C 90.912 239.523,90.830 239.849,90.768 240.287 M167.417 245.750 C 167.417 248.042,167.464 249.392,167.521 248.750 C 167.578 248.108,167.625 246.758,167.625 245.750 C 167.625 244.742,167.578 243.392,167.521 242.750 C 167.464 242.108,167.417 243.458,167.417 245.750 M187.912 252.667 C 187.912 258.212,187.933 260.481,187.958 257.708 C 187.984 254.935,187.984 250.398,187.958 247.625 C 187.933 244.852,187.912 247.121,187.912 252.667 M190.914 252.583 L 190.917 260.750 199.083 260.752 L 207.250 260.755 199.127 260.709 L 191.003 260.663 190.957 252.540 L 190.912 244.417 190.914 252.583 M264.248 252.583 L 264.250 260.750 272.417 260.750 L 280.583 260.750 280.586 252.583 L 280.588 244.417 280.543 252.542 L 280.497 260.667 272.417 260.667 L 264.337 260.667 264.291 252.542 L 264.245 244.417 264.248 252.583 M90.387 245.833 C 90.387 246.429,90.417 246.673,90.454 246.375 C 90.491 246.077,90.491 245.590,90.454 245.292 C 90.417 244.994,90.387 245.237,90.387 245.833 M90.553 248.500 C 90.553 249.096,90.584 249.340,90.621 249.042 C 90.658 248.744,90.658 248.256,90.621 247.958 C 90.584 247.660,90.553 247.904,90.553 248.500 M90.701 250.167 C 90.696 250.487,90.751 251.088,90.825 251.500 C 91.005 252.513,91.019 251.561,90.841 250.417 C 90.735 249.735,90.709 249.690,90.701 250.167 M127.909 254.409 C 127.684 254.634,127.503 254.915,127.506 255.034 C 127.509 255.153,127.615 255.063,127.742 254.834 C 127.868 254.606,128.184 254.328,128.444 254.217 C 128.760 254.082,128.818 254.013,128.617 254.008 C 128.453 254.003,128.134 254.184,127.909 254.409 M158.833 254.119 C 158.971 254.170,159.233 254.281,159.417 254.365 C 159.745 254.516,159.745 254.514,159.426 254.259 C 159.249 254.117,158.986 254.006,158.843 254.013 C 158.619 254.025,158.617 254.039,158.833 254.119 M166.426 254.593 C 166.363 254.927,166.345 255.234,166.386 255.275 C 166.427 255.316,166.511 255.075,166.574 254.741 C 166.637 254.406,166.655 254.099,166.614 254.059 C 166.573 254.018,166.489 254.258,166.426 254.593 M91.695 255.500 C 91.703 255.933,91.966 256.644,91.972 256.250 C 91.974 256.067,91.912 255.767,91.833 255.583 C 91.746 255.379,91.692 255.347,91.695 255.500 M127.507 255.921 C 127.494 256.244,128.021 256.835,128.552 257.094 L 129.083 257.353 128.667 257.014 C 128.438 256.827,128.196 256.672,128.130 256.670 C 128.065 256.668,127.899 256.460,127.762 256.208 C 127.625 255.956,127.510 255.827,127.507 255.921 M159.667 256.293 C 159.667 256.393,159.104 256.831,158.417 257.266 C 157.216 258.027,156.763 258.394,157.536 257.981 C 158.994 257.200,159.977 256.421,159.767 256.211 C 159.712 256.156,159.667 256.193,159.667 256.293 M129.333 257.534 C 129.471 257.670,129.958 257.982,130.417 258.230 C 131.333 258.724,130.848 258.318,129.764 257.685 C 129.390 257.467,129.196 257.399,129.333 257.534 M92.439 258.000 C 92.495 258.229,92.644 258.642,92.769 258.917 C 92.952 259.318,92.976 259.335,92.894 259.000 C 92.838 258.771,92.690 258.358,92.564 258.083 C 92.382 257.682,92.357 257.665,92.439 258.000 M165.350 258.267 C 165.124 259.086,165.240 259.203,165.500 258.417 C 165.610 258.084,165.660 257.771,165.612 257.723 C 165.564 257.675,165.446 257.919,165.350 258.267 M155.747 258.940 C 154.820 259.555,154.617 259.797,155.417 259.334 C 156.062 258.961,156.656 258.500,156.491 258.500 C 156.447 258.500,156.112 258.698,155.747 258.940 M132.417 259.420 C 132.600 259.569,132.900 259.765,133.083 259.855 L 133.417 260.018 133.083 259.747 C 132.900 259.598,132.600 259.402,132.417 259.312 L 132.083 259.148 132.417 259.420 M154.042 260.019 C 153.474 260.383,153.290 260.627,153.792 260.351 C 154.174 260.141,154.773 259.678,154.667 259.675 C 154.621 259.673,154.340 259.828,154.042 260.019 M164.333 260.833 C 164.217 261.114,164.161 261.383,164.208 261.431 C 164.256 261.478,164.379 261.276,164.481 260.981 C 164.724 260.286,164.608 260.170,164.333 260.833 M134.652 260.784 C 134.874 260.949,135.361 261.255,135.736 261.466 C 136.110 261.676,136.236 261.713,136.014 261.549 C 135.793 261.385,135.305 261.078,134.931 260.868 C 134.556 260.657,134.431 260.620,134.652 260.784 M152.790 260.819 C 152.105 261.258,152.011 261.413,152.614 261.106 C 152.907 260.957,153.192 260.760,153.249 260.668 C 153.383 260.452,153.343 260.465,152.790 260.819 M93.500 260.733 C 93.500 260.930,94.637 263.333,94.730 263.333 C 94.810 263.333,93.713 260.826,93.569 260.681 C 93.531 260.642,93.500 260.666,93.500 260.733 M231.542 260.792 C 233.810 260.818,237.523 260.818,239.792 260.792 C 242.060 260.765,240.204 260.744,235.667 260.744 C 231.129 260.744,229.273 260.765,231.542 260.792 M151.222 261.802 C 150.254 262.426,150.107 262.631,150.968 262.157 C 151.363 261.939,151.766 261.665,151.863 261.547 C 152.108 261.253,152.022 261.287,151.222 261.802 M163.417 262.833 C 163.094 263.475,162.867 264.000,162.912 264.000 C 162.958 264.000,163.260 263.475,163.583 262.833 C 163.906 262.192,164.133 261.667,164.088 261.667 C 164.042 261.667,163.740 262.192,163.417 262.833 M137.793 262.702 C 137.990 262.939,139.333 263.739,139.333 263.619 C 139.333 263.581,138.945 263.308,138.470 263.013 C 137.995 262.718,137.690 262.578,137.793 262.702 M149.389 262.969 C 148.459 263.568,148.247 263.823,149.083 263.337 C 149.699 262.978,150.342 262.486,150.161 262.511 C 150.118 262.517,149.771 262.723,149.389 262.969 M139.750 263.915 C 140.122 264.225,141.178 264.795,140.917 264.546 C 140.825 264.458,140.450 264.218,140.083 264.012 C 139.717 263.806,139.567 263.763,139.750 263.915 M147.790 263.986 C 147.219 264.352,147.067 264.500,147.264 264.499 C 147.348 264.499,147.642 264.314,147.917 264.088 C 148.499 263.611,148.445 263.566,147.790 263.986 M194.042 263.792 C 196.769 263.817,201.231 263.817,203.958 263.792 C 206.685 263.766,204.454 263.745,199.000 263.745 C 193.546 263.745,191.315 263.766,194.042 263.792 M230.887 263.792 C 233.621 263.817,238.046 263.817,240.720 263.792 C 243.395 263.766,241.158 263.745,235.750 263.745 C 230.342 263.745,228.153 263.766,230.887 263.792 M267.375 263.792 C 270.102 263.817,274.565 263.817,277.292 263.792 C 280.019 263.766,277.787 263.745,272.333 263.745 C 266.879 263.745,264.648 263.766,267.375 263.792 M95.683 265.073 C 95.875 265.400,96.065 265.667,96.104 265.667 C 96.222 265.667,95.681 264.696,95.501 264.584 C 95.408 264.527,95.490 264.747,95.683 265.073 M146.222 264.969 C 145.292 265.568,145.080 265.823,145.917 265.337 C 146.532 264.978,147.175 264.486,146.994 264.511 C 146.951 264.517,146.604 264.723,146.222 264.969 M121.965 265.464 L 121.680 266.083 122.007 265.690 C 122.186 265.473,122.333 265.192,122.333 265.065 C 122.333 264.722,122.279 264.781,121.965 265.464 M161.539 266.125 C 161.107 266.748,160.967 267.000,161.051 267.000 C 161.090 267.000,161.321 266.700,161.564 266.333 C 162.057 265.588,162.035 265.408,161.539 266.125 M96.445 266.336 C 96.608 266.612,96.916 267.044,97.129 267.294 C 97.342 267.545,97.240 267.319,96.901 266.792 C 96.260 265.793,95.928 265.461,96.445 266.336 M114.333 266.167 L 107.417 266.256 114.250 266.292 C 118.444 266.314,121.180 266.266,121.333 266.167 C 121.471 266.078,121.508 266.021,121.417 266.041 C 121.325 266.061,118.138 266.118,114.333 266.167 M144.000 266.167 C 143.657 266.277,143.642 266.303,143.917 266.314 C 144.100 266.322,144.362 266.256,144.500 266.167 C 144.792 265.978,144.589 265.978,144.000 266.167 M160.715 267.375 C 159.955 268.368,159.617 268.880,159.790 268.775 C 160.006 268.643,161.067 267.167,160.945 267.167 C 160.906 267.167,160.802 267.260,160.715 267.375 M97.992 268.542 C 99.659 270.810,102.188 273.405,104.584 275.308 C 106.111 276.521,105.582 276.007,103.369 274.126 C 101.837 272.825,99.501 270.326,98.304 268.708 C 97.948 268.227,97.615 267.833,97.564 267.833 C 97.513 267.833,97.706 268.152,97.992 268.542 M157.000 271.813 C 155.946 272.897,154.758 274.063,154.360 274.405 C 153.962 274.746,153.665 275.054,153.699 275.088 C 153.800 275.189,157.005 272.138,158.056 270.941 C 158.591 270.332,159.003 269.836,158.972 269.838 C 158.942 269.841,158.054 270.730,157.000 271.813 M195.389 272.458 C 214.348 272.482,245.323 272.482,264.222 272.458 C 283.121 272.435,267.608 272.416,229.750 272.416 C 191.892 272.416,176.429 272.435,195.389 272.458 M98.000 273.219 C 98.000 273.248,98.244 273.491,98.542 273.760 L 99.083 274.250 98.594 273.708 C 98.138 273.203,98.000 273.090,98.000 273.219 M99.833 275.052 C 99.833 275.081,100.077 275.325,100.375 275.594 L 100.917 276.083 100.427 275.542 C 99.971 275.037,99.833 274.923,99.833 275.052 M152.736 275.762 L 152.083 276.357 152.792 275.817 C 153.439 275.324,153.597 275.167,153.444 275.167 C 153.414 275.167,153.095 275.435,152.736 275.762 M106.000 276.379 C 106.000 276.411,106.244 276.616,106.542 276.834 C 106.877 277.079,106.993 277.119,106.847 276.939 C 106.625 276.666,106.000 276.253,106.000 276.379 M150.851 277.081 C 149.792 277.821,149.356 278.178,149.833 277.916 C 150.248 277.688,152.000 276.456,152.000 276.393 C 152.000 276.286,151.928 276.329,150.851 277.081 M107.417 277.420 C 107.600 277.569,107.900 277.765,108.083 277.855 L 108.417 278.018 108.083 277.747 C 107.900 277.598,107.600 277.402,107.417 277.312 L 107.083 277.148 107.417 277.420 M109.000 278.408 C 109.000 278.454,109.225 278.608,109.500 278.750 C 109.775 278.892,110.000 278.971,110.000 278.925 C 110.000 278.879,109.775 278.726,109.500 278.583 C 109.225 278.441,109.000 278.362,109.000 278.408 M148.292 278.678 C 147.948 278.859,147.667 279.045,147.667 279.091 C 147.667 279.136,147.967 279.020,148.333 278.833 C 148.700 278.646,149.000 278.457,149.000 278.413 C 149.000 278.304,148.999 278.305,148.292 278.678 M112.583 280.341 C 113.500 280.787,114.325 281.151,114.417 281.149 C 114.508 281.147,113.804 280.775,112.851 280.323 C 111.899 279.870,111.074 279.507,111.018 279.515 C 110.962 279.523,111.667 279.894,112.583 280.341 M146.000 279.917 C 145.587 280.138,145.325 280.318,145.417 280.318 C 145.508 280.318,145.921 280.138,146.333 279.917 C 146.746 279.696,147.008 279.515,146.917 279.515 C 146.825 279.515,146.412 279.696,146.000 279.917 M143.750 280.913 C 143.292 281.129,142.992 281.307,143.083 281.309 C 143.175 281.311,143.625 281.136,144.083 280.920 C 144.542 280.704,144.842 280.526,144.750 280.524 C 144.658 280.522,144.208 280.697,143.750 280.913 M141.000 281.917 C 140.404 282.132,139.996 282.313,140.093 282.320 C 140.189 282.327,140.789 282.151,141.426 281.929 C 142.062 281.707,142.471 281.525,142.333 281.525 C 142.196 281.526,141.596 281.702,141.000 281.917 M116.500 281.917 C 117.261 282.210,117.560 282.205,116.917 281.911 C 116.642 281.785,116.304 281.684,116.167 281.687 C 116.029 281.690,116.179 281.793,116.500 281.917 M119.500 282.833 C 119.729 282.907,120.067 282.967,120.250 282.967 C 120.514 282.967,120.497 282.939,120.167 282.833 C 119.938 282.760,119.600 282.700,119.417 282.700 C 119.153 282.700,119.170 282.728,119.500 282.833 M137.333 282.927 L 136.583 283.155 137.333 283.056 C 137.746 283.002,138.233 282.897,138.417 282.823 L 138.750 282.688 138.417 282.694 C 138.233 282.697,137.746 282.802,137.333 282.927 M125.667 283.856 C 126.263 283.914,127.763 283.961,129.000 283.961 C 130.237 283.961,131.737 283.914,132.333 283.856 C 132.929 283.797,131.429 283.750,129.000 283.750 C 126.571 283.750,125.071 283.797,125.667 283.856 M287.549 285.457 C 288.264 285.489,289.389 285.488,290.049 285.457 C 290.710 285.425,290.125 285.400,288.750 285.400 C 287.375 285.400,286.835 285.426,287.549 285.457 M128.625 286.951 C 128.831 286.991,129.169 286.991,129.375 286.951 C 129.581 286.911,129.412 286.879,129.000 286.879 C 128.587 286.879,128.419 286.911,128.625 286.951 " stroke="none" fill="#e46d75" fill-rule="evenodd"></path></g></svg>